<svg style="position:absolute!important;z-index:1!important;width:189px!important;height:28px!important;pointer-events:none!important" viewBox="0 0 189 28" fill="none" xmlns="http://www.w3.org/2000/svg"><path d="M33.85 9.047l3.255 8.121 3.253-8.121h1.703V19h-1.313v-3.876l.123-4.184L37.603 19H36.6l-3.261-8.04.13 4.164V19h-1.313V9.047h1.696zM48.747 19c-.073-.146-.132-.406-.178-.78-.587.611-1.29.917-2.105.917-.73 0-1.329-.205-1.798-.616a2.016 2.016 0 01-.697-1.572c0-.77.291-1.367.875-1.79.588-.43 1.412-.643 2.474-.643h1.23v-.581c0-.443-.131-.793-.396-1.053-.264-.264-.654-.397-1.169-.397-.45 0-.829.114-1.134.342-.306.228-.458.504-.458.827h-1.272c0-.369.13-.724.39-1.066a2.7 2.7 0 011.066-.82c.451-.2.946-.301 1.484-.301.852 0 1.52.214 2.002.642.484.424.734 1.01.752 1.757v3.404c0 .68.087 1.22.26 1.62V19h-1.326zm-2.099-.964c.397 0 .773-.102 1.128-.308.356-.205.613-.471.773-.8v-1.517h-.991c-1.55 0-2.325.454-2.325 1.36 0 .397.133.707.397.93.264.223.604.335 1.019.335zm4.84-2.796c0-1.135.27-2.046.807-2.734.538-.693 1.242-1.04 2.112-1.04.866 0 1.552.297 2.058.89V8.5h1.264V19h-1.162l-.061-.793c-.506.62-1.21.93-2.112.93-.857 0-1.557-.351-2.1-1.053-.537-.702-.806-1.618-.806-2.748v-.096zm1.265.144c0 .838.173 1.495.52 1.968.346.474.824.712 1.435.712.802 0 1.388-.36 1.757-1.08v-3.398c-.378-.697-.96-1.046-1.743-1.046-.62 0-1.103.24-1.45.718-.346.478-.519 1.187-.519 2.126zm10.015 3.753c-1.003 0-1.819-.328-2.448-.985-.629-.66-.943-1.542-.943-2.645v-.233c0-.733.139-1.387.417-1.961a3.282 3.282 0 011.176-1.354 2.958 2.958 0 011.64-.492c.962 0 1.71.316 2.243.95.533.633.8 1.54.8 2.72v.527H60.64c.018.73.23 1.32.635 1.77.41.447.93.67 1.559.67.447 0 .825-.09 1.135-.273.31-.182.58-.424.813-.725l.773.602c-.62.953-1.55 1.429-2.79 1.429zm-.158-6.631c-.51 0-.938.187-1.285.56-.346.37-.56.89-.642 1.559h3.705v-.096c-.037-.642-.21-1.139-.52-1.49-.31-.355-.729-.533-1.258-.533zM71.968 19h-1.265v-7.396h1.265V19zM70.6 9.642c0-.205.061-.379.184-.52.128-.141.315-.212.56-.212.247 0 .434.07.561.212a.747.747 0 01.192.52.722.722 0 01-.192.512c-.127.137-.314.205-.56.205-.246 0-.433-.068-.56-.205a.738.738 0 01-.185-.512zm4.593 1.962l.041.93c.566-.712 1.304-1.067 2.215-1.067 1.563 0 2.352.882 2.365 2.645V19h-1.264v-4.895c-.005-.533-.128-.927-.37-1.182-.236-.255-.608-.383-1.114-.383-.41 0-.77.11-1.08.328-.31.219-.551.506-.724.861V19h-1.265v-7.396h1.196zM85.394 19V9.047h3.253c1.08 0 1.892.223 2.434.67.547.446.82 1.107.82 1.982 0 .465-.132.877-.396 1.238a2.582 2.582 0 01-1.08.827c.538.15.961.437 1.271.861.315.42.472.92.472 1.504 0 .893-.29 1.595-.868 2.105-.579.51-1.397.766-2.454.766h-3.452zm1.312-4.655v3.582h2.167c.61 0 1.091-.157 1.442-.472.356-.319.534-.756.534-1.312 0-1.199-.652-1.798-1.955-1.798h-2.188zm0-1.053h1.983c.574 0 1.032-.144 1.374-.43.346-.288.519-.677.519-1.17 0-.546-.16-.943-.478-1.19-.32-.25-.805-.375-1.457-.375h-1.94v3.165zm6.877 1.941c0-.724.141-1.376.424-1.955.287-.579.683-1.025 1.19-1.34.51-.314 1.09-.471 1.742-.471 1.008 0 1.821.348 2.44 1.046.625.697.937 1.624.937 2.782v.089c0 .72-.139 1.367-.417 1.941a3.114 3.114 0 01-1.182 1.333c-.51.32-1.099.479-1.764.479-1.002 0-1.816-.349-2.44-1.046-.62-.697-.93-1.62-.93-2.769v-.089zm1.272.15c0 .821.189 1.48.567 1.976.383.497.893.745 1.531.745.643 0 1.153-.25 1.531-.752.379-.505.568-1.212.568-2.119 0-.81-.194-1.467-.581-1.968-.383-.506-.894-.76-1.532-.76-.624 0-1.127.25-1.51.746-.383.497-.575 1.208-.575 2.133zm6.712-.15c0-.724.142-1.376.424-1.955a3.217 3.217 0 011.19-1.34c.51-.314 1.091-.471 1.743-.471 1.007 0 1.82.348 2.44 1.046.625.697.937 1.624.937 2.782v.089c0 .72-.139 1.367-.417 1.941a3.119 3.119 0 01-1.183 1.333c-.51.32-1.098.479-1.763.479-1.003 0-1.817-.349-2.441-1.046-.62-.697-.93-1.62-.93-2.769v-.089zm1.272.15c0 .821.189 1.48.567 1.976.383.497.893.745 1.532.745.642 0 1.152-.25 1.531-.752.378-.505.567-1.212.567-2.119 0-.81-.194-1.467-.581-1.968-.383-.506-.893-.76-1.531-.76-.625 0-1.128.25-1.511.746-.383.497-.574 1.208-.574 2.133zm8.237-3.78l.034.82c.543-.637 1.274-.956 2.195-.956 1.034 0 1.738.396 2.112 1.19a2.81 2.81 0 01.957-.862c.397-.219.864-.328 1.401-.328 1.623 0 2.448.859 2.475 2.577V19h-1.265v-4.88c0-.53-.12-.924-.362-1.183-.241-.265-.647-.397-1.217-.397-.469 0-.859.141-1.169.424-.31.278-.49.654-.54 1.128V19h-1.271v-4.847c0-1.075-.527-1.613-1.579-1.613-.83 0-1.397.353-1.702 1.06V19h-1.265v-7.396h1.196zM123.538 19h-1.265V8.5h1.265V19zm6.597 0c-.073-.146-.132-.406-.178-.78-.588.611-1.29.917-2.105.917-.73 0-1.329-.205-1.798-.616a2.016 2.016 0 01-.698-1.572c0-.77.292-1.367.875-1.79.588-.43 1.413-.643 2.475-.643h1.231v-.581c0-.443-.133-.793-.397-1.053-.264-.264-.654-.397-1.169-.397-.451 0-.829.114-1.135.342-.305.228-.458.504-.458.827h-1.271c0-.369.13-.724.389-1.066.265-.346.62-.62 1.067-.82.451-.2.946-.301 1.483-.301.853 0 1.52.214 2.003.642.483.424.734 1.01.752 1.757v3.404c0 .68.087 1.22.26 1.62V19h-1.326zm-2.099-.964a2.22 2.22 0 001.128-.308c.356-.205.613-.471.773-.8v-1.517h-.992c-1.549 0-2.324.454-2.324 1.36 0 .397.132.707.397.93.264.223.603.335 1.018.335z" fill="#2C2C2C"/><rect x="8" y="6" width="16" height="16" rx="2" fill="#12A4E2"/><path fill-rule="evenodd" clip-rule="evenodd" d="M10 9v6a6 6 0 104-5.659V9a2 2 0 10-4 0zm6 8a2 2 0 100-4 2 2 0 000 4z" fill="#000" fill-opacity=".25"/><path fill-rule="evenodd" clip-rule="evenodd" d="M13 9v2a5 5 0 11-2 4V9a1 1 0 112 0zm0 6a3 3 0 106 0 3 3 0 00-6 0z" fill="#fff"/><path d="M149.475 17.927h4.716V19h-6.036V9.047h1.32v8.88zm5.68-2.694c0-.724.142-1.376.424-1.955a3.217 3.217 0 011.19-1.34c.51-.314 1.091-.471 1.743-.471 1.007 0 1.82.348 2.44 1.046.624.697.937 1.624.937 2.782v.089c0 .72-.139 1.367-.417 1.941a3.119 3.119 0 01-1.183 1.333c-.51.32-1.098.479-1.764.479-1.002 0-1.816-.349-2.44-1.046-.62-.697-.93-1.62-.93-2.769v-.089zm1.272.15c0 .821.189 1.48.567 1.976.383.497.893.745 1.531.745.643 0 1.153-.25 1.532-.752.378-.505.567-1.212.567-2.119 0-.81-.194-1.467-.581-1.968-.383-.506-.893-.76-1.531-.76-.625 0-1.128.25-1.511.746-.383.497-.574 1.208-.574 2.133zm6.747-.143c0-1.153.266-2.069.8-2.748.533-.683 1.239-1.025 2.119-1.025.902 0 1.606.319 2.112.957l.062-.82h1.155v7.218c0 .957-.285 1.712-.855 2.263-.565.551-1.326.827-2.283.827a3.8 3.8 0 01-1.565-.342c-.511-.228-.9-.54-1.169-.936l.656-.759c.542.67 1.205 1.005 1.989 1.005.616 0 1.094-.173 1.436-.52.346-.346.519-.834.519-1.462v-.636c-.505.583-1.196.875-2.071.875-.866 0-1.568-.349-2.105-1.046-.534-.697-.8-1.648-.8-2.85zm1.271.144c0 .834.171 1.49.513 1.968.342.474.82.712 1.436.712.797 0 1.383-.363 1.756-1.087V13.6c-.387-.707-.968-1.06-1.743-1.06-.615 0-1.096.24-1.442.718-.347.478-.52 1.187-.52 2.126zM172.71 19h-1.265v-7.396h1.265V19zm-1.367-9.358c0-.205.061-.379.184-.52.128-.141.315-.212.561-.212.246 0 .433.07.56.212a.746.746 0 01.192.52.721.721 0 01-.192.512c-.127.137-.314.205-.56.205-.246 0-.433-.068-.561-.205a.738.738 0 01-.184-.512zm4.594 1.962l.041.93c.565-.712 1.303-1.067 2.214-1.067 1.564 0 2.352.882 2.366 2.645V19h-1.265v-4.895c-.005-.533-.128-.927-.369-1.182-.237-.255-.609-.383-1.114-.383-.411 0-.771.11-1.081.328a2.232 2.232 0 00-.724.861V19h-1.265v-7.396h1.197z" fill="#fff"/></svg>